<svg width="650" height="400" viewBox="0 0 650 400" xmlns="http://www.w3.org/2000/svg" >
    <linearGradient id="gradient" x1="325" y1="766" x2="325" y2="366" gradientTransform="translate(0 -366)" gradientUnits="userSpaceOnUse">
        <stop offset="0" stop-color="#f0f0f0"/>
        <stop offset="1" stop-color="#fff"/>
    </linearGradient>
    <path fill="url(#gradient)" d="M0,0H650V400H0Z" />
    <path fill="#32373c" d="M325,106a93.55,93.55,0,0,1,36.6,7.4,99.45,99.45,0,0,1,16,8.7,90.08,90.08,0,0,1,13.9,11.5,93.84,93.84,0,0,1,20.2,103.1,99.45,99.45,0,0,1-8.7,16,90.08,90.08,0,0,1-11.5,13.9,93.84,93.84,0,0,1-103.1,20.2,99.45,99.45,0,0,1-16-8.7,90.08,90.08,0,0,1-13.9-11.5,93.84,93.84,0,0,1-20.2-103.1,99.45,99.45,0,0,1,8.7-16,90.08,90.08,0,0,1,11.5-13.9A93.63,93.63,0,0,1,325,106m0-6A100,100,0,1,0,425,200,100,100,0,0,0,325,100Z" />
    <path fill="#32373c" d="M241.7,200a83.35,83.35,0,0,0,47,75L248.9,166.1A83,83,0,0,0,241.7,200Zm139.6-4.2c0-10.3-3.7-17.4-6.9-23-4.2-6.9-8.2-12.7-8.2-19.5,0-7.7,5.8-14.8,14-14.8a4.07,4.07,0,0,1,1.1.1,83.24,83.24,0,0,0-125.9,15.7c2,.1,3.8.1,5.4.1,8.7,0,22.2-1.1,22.2-1.1,4.5-.3,5,6.3.5,6.9,0,0-4.5.5-9.5.8l30.3,90.3,18.2-54.7-13-35.6c-4.5-.3-8.7-.8-8.7-.8-4.5-.3-4-7.1.5-6.9,0,0,13.8,1.1,21.9,1.1,8.7,0,22.2-1.1,22.2-1.1,4.5-.3,5,6.3.5,6.9,0,0-4.5.5-9.5.8l30.1,89.6,8.6-27.2c3.9-12,6.2-20.5,6.2-27.6Zm-54.8,11.5-25,72.7a83.43,83.43,0,0,0,23.5,3.4,84.56,84.56,0,0,0,27.7-4.7c-.2-.4-.4-.7-.6-1.1l-25.6-70.3ZM398.1,160a58.91,58.91,0,0,1,.6,8.6c0,8.5-1.6,18-6.3,29.8L366.9,272A83.37,83.37,0,0,0,398.1,160Z" />
</svg>
